PathFileType	4	(X/Y/Z)	/Users/niels/Desktop/University/Third Semester/Perception and Action/Exam/Gymnastics Motion Tracking/Code for Gym Tracking/Analyzed Data/Webcam_Backflip/id2001_1_baseline_Sports2D/id2001_1_baseline_Sports2D_px_person00.trc
DataRate	CameraRate	NumFrames	NumMarkers	Units	OrigDataRate	OrigDataStartFrame	OrigNumFrames
29.884169884169886	29.884169884169886	11	22	m	29.884169884169886	129	259
Frame#	Time	Hip			RHip			RKnee			RAnkle			RBigToe			RSmallToe			RHeel			LHip			LKnee			LAnkle			LBigToe			LSmallToe			LHeel			Neck			Head			Nose			RShoulder			RElbow			RWrist			LShoulder			LElbow			LWrist		
		X1	Y1	Z1	X2	Y2	Z2	X3	Y3	Z3	X4	Y4	Z4	X5	Y5	Z5	X6	Y6	Z6	X7	Y7	Z7	X8	Y8	Z8	X9	Y9	Z9	X10	Y10	Z10	X11	Y11	Z11	X12	Y12	Z12	X13	Y13	Z13	X14	Y14	Z14	X15	Y15	Z15	X16	Y16	Z16	X17	Y17	Z17	X18	Y18	Z18	X19	Y19	Z19	X20	Y20	Z20	X21	Y21	Z21	X22	Y22	Z22
129	4.316666666666666	0.916166310984016	-0.7374256033005545	0.0	0.9009161935908419	-0.7491005484937275	0.0	0.9238618355383834	-1.063245818173098	0.0	1.2602641755639241	-1.0955119306745227	0.0	1.6189926064256914	-1.0752892331319623	0.0	1.44444621314496	-1.1020361264939704	0.0	1.2572304143569626	-1.0903616666653644	0.0	0.940188393468592	-0.750878181286536	0.0	0.9734531794970391	-1.059236286107581	0.0	0.8255189597413122	-1.0752795610882375	0.0	1.511107555852297	-1.0551860901833747	0.0	1.5138769530937053	-1.035822265624388	0.0	0.6148691406249998	-0.9392568359375	0.0	1.1018413336566342	-0.2894892218123241	0.0	1.208143633473404	-0.10610547392663623	0.0	1.2141185889630768	-0.2098166319503149	0.0	1.067552965243419	-0.32418010370221295	0.0	0.990994142178655	-0.5896638695250676	0.0	0.9897226530428682	-0.8676190716624342	0.0	1.0968980111147417	-0.34300538315568585	0.0	1.0257807397956216	-0.5898699113696689	0.0	1.057394546566627	-0.8248606658620258	0.0
130	4.350129198966409	0.9205355997522248	-0.7353026444434069	0.0	0.9072128613271095	-0.7445676821144409	0.0	0.9185273033707351	-1.0636578026320942	0.0	1.2605117652932147	-1.0955163778179744	0.0	1.6188952070802354	-1.0752969644770376	0.0	1.4444339058799927	-1.1020364945094936	0.0	1.2572430577150775	-1.0903613075300547	0.0	0.9375883603080919	-0.7473378395286115	0.0	0.9734527874983715	-1.0604314308373317	0.0	0.8303505625392111	-1.074969642844603	0.0	1.5111077128230812	-1.0551909170310076	0.0	1.513876953082751	-1.0358222656237064	0.0	0.6148691406249998	-0.9392568359375	0.0	1.0914440115376693	-0.28597448922258306	0.0	1.1957182424216517	-0.10181811366491543	0.0	1.2028159443430146	-0.20539270108426722	0.0	1.0586995156431611	-0.32216866880705225	0.0	1.015027174538884	-0.5883325494349181	0.0	1.0485158788892959	-0.852988356345287	0.0	1.0853706198687865	-0.3407385284156613	0.0	1.0359862086588887	-0.5933753908100945	0.0	1.0807425432577402	-0.8123826732820025	0.0
131	4.38359173126615	0.9267591301770358	-0.7338840707066022	0.0	0.9147186710504024	-0.7406462252243826	0.0	0.9214793407226683	-1.064312603794491	0.0	1.2609824155082214	-1.0955283341598356	0.0	1.6187731563255994	-1.0752973632225216	0.0	1.4444223989460878	-1.1020272557358135	0.0	1.2572780645340327	-1.0903443336175003	0.0	0.9421285268849583	-0.7444303126781532	0.0	0.9798798113691084	-1.0615972123349193	0.0	0.8331145056974412	-1.0747703257640975	0.0	1.5111117327983044	-1.0551876101756952	0.0	1.5138769530896286	-1.0358222656237739	0.0	0.6148691406249998	-0.9392568359375	0.0	1.0790934015445315	-0.2812290425269585	0.0	1.1796100934956215	-0.09629336684600763	0.0	1.1886545720794304	-0.20001824753853256	0.0	1.0481889743072064	-0.31913242747742987	0.0	1.0444134634535076	-0.5812178219801296	0.0	1.116246400933397	-0.824995932216172	0.0	1.0700816708635181	-0.3369986833602017	0.0	1.048820177313443	-0.5928969400080663	0.0	1.1141988670609233	-0.7864828376525278	0.0
132	4.417054263565891	0.9341765542139772	-0.733200892927057	0.0	0.9223131968968645	-0.7379093572554748	0.0	0.9329995737758137	-1.0652724319728288	0.0	1.2616857902166474	-1.0955506663274823	0.0	1.6186711647509369	-1.0752797383255968	0.0	1.4444203521192152	-1.1020007835848478	0.0	1.2573443642840312	-1.0902982056048647	0.0	0.9518956507560609	-0.7424348073971032	0.0	0.988933212907254	-1.0624463659690082	0.0	0.8337855102666939	-1.074720977906849	0.0	1.5111224831660441	-1.0551667611194067	0.0	1.5138769531020115	-1.0358222656241325	0.0	0.6148691406249998	-0.9392568359375	0.0	1.0656570598949586	-0.27560836300112945	0.0	1.1603131117915515	-0.09008582946355449	0.0	1.1724107418962653	-0.1942675840836787	0.0	1.0365316772092392	-0.3152631827396305	0.0	1.0767848438616414	-0.5658008798585137	0.0	1.1874954564944498	-0.7809134183429853	0.0	1.0523894185106601	-0.3321712911669779	0.0	1.06416913188584	-0.5870317996991218	0.0	1.1559572720172184	-0.7438842933383909	0.0
133	4.450516795865633	0.9420778235356468	-0.7331076059296266	0.0	0.9292720550575603	-0.7364923446903582	0.0	0.9515733618904346	-1.0665046981496156	0.0	1.262493183582631	-1.0955835366508693	0.0	1.6186844310939288	-1.07522997189835	0.0	1.4444425600151343	-1.101949867167148	0.0	1.257443134322142	-1.0902116034375315	0.0	0.9640133431109565	-0.7413227794620058	0.0	0.9964045612168687	-1.0628157861870946	0.0	0.8327040860735057	-1.0748697342484321	0.0	1.5111425109056762	-1.0551170442279025	0.0	1.513876953113326	-1.0358222656245144	0.0	0.6148691406249998	-0.9392568359375	0.0	1.0518339359600177	-0.26945429366968976	0.0	1.1387510565502237	-0.08391305891351318	0.0	1.154914731138992	-0.18875702025742475	0.0	1.0240033263789319	-0.31066134661648026	0.0	1.109057924605208	-0.5405225158368282	0.0	1.2560800229427131	-0.7200073375678793	0.0	1.0346749145705596	-0.3266853371643088	0.0	1.0820956557478794	-0.5749671980111136	0.0	1.202462760929662	-0.6849077236693553	0.0
134	4.483979328165375	0.9499012845641298	-0.7332722224334742	0.0	0.9351747045671753	-0.7359643354277595	0.0	0.9754894484324208	-1.0678156327202213	0.0	1.2630248193598825	-1.0956204502530527	0.0	1.6189682350786507	-1.0751348725536216	0.0	1.4445090084560919	-1.101873015903002	0.0	1.257556003168113	-1.0900835598853398	0.0	0.9763590343203677	-0.7407140856432409	0.0	1.0001052152480263	-1.0626019077506308	0.0	0.8304281636646297	-1.0752779552320038	0.0	1.5111719220098794	-1.0550298924760788	0.0	1.5138769531211465	-1.035822265624803	0.0	0.6148691406249998	-0.9392568359375	0.0	1.0383100416402058	-0.2632160282291333	0.0	1.1162680881646465	-0.07843456773828698	0.0	1.1370843737655074	-0.18387392536308628	0.0	1.0108602134262106	-0.3054644081152433	0.0	1.1380096167707947	-0.5056964641730495	0.0	1.3163784816425346	-0.643886012500708	0.0	1.020270060531035	-0.32134271840304457	0.0	1.1031411657629295	-0.5564433188369432	0.0	1.249681478233831	-0.6140341066014154	0.0
135	4.517441860465117	0.9572111032779759	-0.7331624090645747	0.0	0.9399811748752058	-0.7355851022183345	0.0	1.0039661466209702	-1.068759582221867	0.0	1.262540945073535	-1.09564303063379	0.0	1.6197219048154468	-1.0749921156653557	0.0	1.444639195401249	-1.1017835707981576	0.0	1.2576292510413243	-1.0899388193569304	0.0	0.9871548501538071	-0.740044943307241	0.0	0.9996989360628569	-1.0617579320202573	0.0	0.8278746193324621	-1.0759885805823908	0.0	1.5112048399616997	-1.0549090211860275	0.0	1.5138769531254144	-1.0358222656249754	0.0	0.6148691406249998	-0.9392568359375	0.0	1.0258504871595115	-0.2574561926973693	0.0	1.0943114127413385	-0.07396469972678361	0.0	1.1199788890968212	-0.17958785465478527	0.0	0.9975070282813544	-0.29993698212603903	0.0	1.1609835957728754	-0.46346677600380026	0.0	1.3642760917800645	-0.5557106828613806	0.0	1.0121232908563844	-0.31712732843846064	0.0	1.1269889534146444	-0.5313323200112804	0.0	1.2934682923716407	-0.5382595286191618	0.0
136	4.550904392764858	0.9636749494122174	-0.7322840075065689	0.0	0.9441710498473581	-0.7347395345625409	0.0	1.0371572307990622	-1.068415507120399	0.0	1.2599133034283108	-1.0956161299100056	0.0	1.6211211867668482	-1.0748272204788611	0.0	1.4448386924495649	-1.1017220818176399	0.0	1.2575586409601298	-1.0898482381844765	0.0	0.9946911201088537	-0.7389712822188564	0.0	0.9961206858883114	-1.060391125803511	0.0	0.8266398142730428	-1.0769503472237896	0.0	1.5112247368722929	-1.0547854708511217	0.0	1.5138769531270644	-1.035822265625053	0.0	0.6148691406249998	-0.9392568359375	0.0	1.0151220775780179	-0.25259845438583534	0.0	1.0740031308419484	-0.07049765309334388	0.0	1.1046118603121944	-0.17560524509111336	0.0	0.9844909405712029	-0.2942809618776108	0.0	1.1762535905782074	-0.4167903716862224	0.0	1.3969405362338096	-0.4594949644025959	0.0	1.011502135750441	-0.3146590030753337	0.0	1.151369945163532	-0.4997610693964573	0.0	1.3295172601362086	-0.46459146785819166	0.0
137	4.584366925064599	0.9690767335050378	-0.7304071903399246	0.0	0.9485943877493365	-0.7330779754001698	0.0	1.0752978922832268	-1.0650945985917346	0.0	1.2538099625075725	-1.0954869458591434	0.0	1.6231698276952455	-1.0747164769745632	0.0	1.4450756932080677	-1.10176850701904	0.0	1.2571856922752362	-1.0899480634110148	0.0	0.997302311934147	-0.7375122783625242	0.0	0.9911301028169262	-1.0588665227151692	0.0	0.8293091779067383	-1.0778969808940222	0.0	1.5112000853966314	-1.0547361872884984	0.0	1.5138769531271885	-1.0358222656250708	0.0	0.6148691406249998	-0.9392568359375	0.0	1.0064583834228535	-0.2487241426496151	0.0	1.0559969784101884	-0.06788346895362708	0.0	1.091647621254989	-0.17167136503217276	0.0	0.9724664179734646	-0.2885354401449744	0.0	1.1831890030303431	-0.3684956225457115	0.0	1.4123643829829935	-0.3603208416155926	0.0	1.0174113015573778	-0.31392887857967605	0.0	1.1730394693416923	-0.4631031765883002	0.0	1.3538855429214105	-0.3977776596499408	0.0
138	4.6178294573643415	0.9732613657939767	-0.7274393922434714	0.0	0.9540340781363145	-0.7302825772553677	0.0	1.117870729483517	-1.0562157199422915	0.0	1.243276190243439	-1.095194422454669	0.0	1.6254524610235779	-1.0748093000649714	0.0	1.4452486339090513	-1.102046006137942	0.0	1.2563241089166486	-1.0904438935160865	0.0	0.9936163305990748	-0.735745805979108	0.0	0.9868426253818837	-1.0577657629838104	0.0	0.8394469946890127	-1.0782010555638535	0.0	1.511083629778279	-1.0548990262512918	0.0	1.5138769531266494	-1.0358222656250589	0.0	0.6148691406249998	-0.9392568359375	0.0	0.9997778789457524	-0.24574249684737481	0.0	1.04072372436745	-0.06584517156123051	0.0	1.0813101927173416	-0.16777646720426354	0.0	0.9620940493866058	-0.28272639774776914	0.0	1.1824389001479696	-0.3209578945747513	0.0	1.4098516205888907	-0.26491634917615525	0.0	1.0268153685182952	-0.3145003596153097	0.0	1.1894969866693264	-0.4245285016880714	0.0	1.364371326804095	-0.338978781368141	0.0
139	4.651291989664083	0.9761660259282868	-0.7232956143039451	0.0	0.9607855449476507	-0.7260690061559157	0.0	1.1632136791249432	-1.038693076973726	0.0	1.228895055534284	-1.0946974173564885	0.0	1.6268099278139432	-1.0753345850634632	0.0	1.4451533510672225	-1.1027018923603	0.0	1.2548419821687973	-1.0915749427138364	0.0	0.9837709451056357	-0.7336578608539726	0.0	0.9848985890294216	-1.0576190950060982	0.0	0.860811317840379	-1.0767623688919008	0.0	1.5108209005990132	-1.0554692888749204	0.0	1.5138769531259817	-1.035822265625038	0.0	0.6148691406249998	-0.9392568359375	0.0	0.9946828181215206	-0.24365003344634814	0.0	1.0285566998079723	-0.06399374460634927	0.0	1.0734334719560592	-0.16416588346797703	0.0	0.9537045725172993	-0.2769930594272332	0.0	1.1758602791961257	-0.27596512021128977	0.0	1.3911295246848905	-0.18079833302554632	0.0	1.036116228584534	-0.31588949818687895	0.0	1.1998084183015538	-0.38804598389092165	0.0	1.3616788371989414	-0.28697033709540676	0.0
